<svg width="24mm" height="27mm" version="1.1" viewBox="0 0 24 27" xmlns="http://www.w3.org/2000/svg">
 <path d="m18.376 7.0968c-0.0022 0.05539-0.0052 0.11007-0.0087 0.1651-0.10541 1.6203-0.83054 2.9739-1.2535 3.6364-0.51375 0.80469-1.0192 1.2943-1.299 1.4834-0.03362-0.27764-0.02177-0.83397 0.19487-1.6344 0.17307-0.64029 0.60328-1.8676 1.5408-2.8963 0.24335-0.26705 0.52324-0.52105 0.82543-0.75424zm2.0665 4.645c-1.0338 0.97296-2.4605 1.6863-3.9138 1.9572-1.3792 0.25718-2.6617 0.08431-3.6674-0.48507 0.75008-0.74542 1.2792-1.7381 1.5765-2.9616 0.29492-1.2129 0.2945-2.3555 0.29408-3.0381-3.88e-4 -0.81739-0.07578-1.6602-0.21579-2.4652 0.1531-0.18239 0.30674-0.35313 0.45738-0.50906 0.80726-0.83326 1.5256-1.2199 2.0227-1.0873 0.43187 0.11465 0.81291 0.63888 1.0732 1.4757 0.12816 0.41204 0.2195 0.88053 0.26928 1.3582-0.5467 0.35842-1.0539 0.77999-1.473 1.24-1.6065 1.7632-2.1694 4.3286-1.9443 5.4275 0.07056 0.34537 0.22465 0.57468 0.45738 0.68051 0.24363 0.11112 0.53276 0.06844 0.85937-0.127 0.57778-0.34502 1.2886-1.1642 1.8554-2.1364 0.49004-0.84032 1.0961-2.1738 1.1985-3.7493 0.01764-0.27129 0.02053-0.5528 0.0096-0.83714 0.78867-0.44274 1.624-0.72778 2.3135-0.75424 0.40982-0.01552 0.71988 0.06385 0.8968 0.23072 0.18634 0.17498 0.28886 0.51682 0.28886 0.96202-2.82e-4 1.2601-0.8267 3.3775-2.3582 4.8186zm-10.045-4.5272c2.82e-4 -0.46002 0.02935-0.93451 0.08516-1.4083 0.03665 0.05433 0.07303 0.10901 0.10887 0.16404h1.41e-4c0.12802 0.19544 0.2431 0.37571 0.34466 0.53446 0.51192 0.80116 0.74549 1.1666 1.1651 1.1666 0.40901 0 0.63101-0.34361 1.2247-1.2615 0.08696-0.13476 0.18189-0.28152 0.28526-0.43956 0.03842-0.05891 0.07744-0.11748 0.1167-0.17568 0.05073 0.47272 0.07719 0.95074 0.07733 1.4199 5.29e-4 1.1867 0.0018 3.8672-1.704 5.4441-1.7056-1.5769-1.7045-4.2573-1.704-5.4441zm-4.5706-0.11783c0.30208 0.23319 0.58208 0.48719 0.82546 0.75424 0.93719 1.0287 1.3677 2.256 1.5408 2.8963 0.21646 0.80045 0.22832 1.3568 0.19484 1.6344-0.27986-0.18909-0.78535-0.67874-1.2989-1.4834-0.42291-0.66252-1.1482-2.0161-1.2536-3.6364-0.0035-0.05503-0.0064-0.10971-0.0086-0.1651zm1.8473 6.6022c-1.4536-0.27093-2.88-0.98425-3.9139-1.9572-1.5314-1.4411-2.3579-3.5585-2.3581-4.8186 0-0.44521 0.10252-0.78705 0.28868-0.96202 0.16249-0.15275 0.43684-0.23248 0.79735-0.23248 0.03238 0 0.06558 7.06e-4 0.09934 0.0018 0.68958 0.02646 1.5251 0.3115 2.3136 0.75424-0.01073 0.28434-0.0078 0.56586 0.0097 0.83714 0.10252 1.5755 0.70831 2.909 1.1986 3.7493 0.56667 0.97226 1.2776 1.7914 1.8553 2.1364 0.32674 0.19544 0.6157 0.23812 0.85947 0.127 0.23262-0.10583 0.38654-0.33514 0.45724-0.68051 0.22518-1.0989-0.33775-3.6643-1.9441-5.4275-0.41921-0.46002-0.92646-0.88159-1.473-1.24 0.0496-0.47766 0.14111-0.94615 0.26928-1.3582 0.26031-0.83679 0.64135-1.361 1.0731-1.4757 0.49678-0.13264 1.2154 0.254 2.0227 1.0873 0.15624 0.16122 0.31528 0.33902 0.47403 0.52881-0.15088 0.80927-0.2322 1.6457-0.23259 2.4455-1.41e-4 0.68262-7.05e-4 1.8253 0.29404 3.0381 0.29753 1.2234 0.82642 2.2162 1.5766 2.9616-1.0056 0.56938-2.2882 0.74189-3.6672 0.48507zm3.4024-10.504c0.4349-1.2234 0.88607-1.6954 1.0284-1.7258 0.15519 6e-3 0.6047 0.4071 1.0355 1.6267 0.15296 0.43286 0.28222 0.90593 0.38502 1.4009-0.2825 0.3623-0.51802 0.70344-0.68958 0.96555-0.1046 0.15981-0.20038 0.30798-0.28815 0.44415-0.16122 0.24941-0.32604 0.50447-0.45046 0.6791-0.10777-0.15381-0.24543-0.369-0.38036-0.57997-0.1028-0.16087-0.21922-0.34361-0.34999-0.54328-0.16732-0.25576-0.39511-0.58596-0.66823-0.93804 0.10238-0.46284 0.22916-0.91087 0.37786-1.3293zm12.071 2.0909c-0.36198-0.34078-0.90413-0.50694-1.5675-0.48154-0.72556 0.02752-1.562 0.2787-2.3712 0.68192-0.0598-0.39829-0.14538-0.78352-0.25425-1.1335-0.36354-1.1688-0.95814-1.8934-1.7197-2.0959-1.0288-0.27376-2.1008 0.47625-2.9621 1.3723-0.07729-0.2921-0.16344-0.57397-0.25823-0.84208-0.65543-1.8553-1.402-2.2447-1.9127-2.2447-0.47336 0-1.1804 0.38841-1.8606 2.2391-0.10336 0.28116-0.19748 0.57503-0.28155 0.87771-0.86596-0.90911-1.9506-1.6789-2.991-1.4023-0.76151 0.20249-1.3561 0.9271-1.7195 2.0959-0.10887 0.34996-0.19445 0.73519-0.2541 1.1335-0.80934-0.40322-1.6458-0.6544-2.3713-0.68192-0.66354-0.02505-1.2057 0.14111-1.5675 0.48154-0.37963 0.35736-0.58014 0.92322-0.58014 1.6369 0 1.7381 1.1146 4.0488 2.6497 5.4935 1.4606 1.3741 3.6708 2.3223 5.7835 2.3223 1.1366 0 2.2451-0.27446 3.1926-0.90488 0.94781 0.63041 2.0559 0.90488 3.1928 0.90488 2.1124 0 4.323-0.94827 5.7835-2.3223 1.5351-1.4446 2.6494-3.7553 2.6496-5.4935 0-0.71367-0.20066-1.2795-0.58018-1.6369" style="fill:#f68581"/>
 <g style="stroke-width:0;stroke:#000" aria-label="DULCES PÉTALOS">
  <g transform="translate(0 .52917)">
   <path d="m1.5615 19.546h0.91633q0.54477 0 0.90795-0.27378 0.5755-0.43023 0.5755-1.2991 0.00279-0.86884-0.41906-1.3102-0.42464-0.4414-1.0644-0.4414h-0.91633zm-0.38553-3.71h1.3019q0.80738 0 1.341 0.54477 0.5336 0.54477 0.5336 1.4248 0 0.88002-0.34363 1.3885-0.49169 0.73754-1.5309 0.73754h-1.3019z" style="-inkscape-stroke:none;color:#000000;fill:#f68581;stroke:none"/>
   <path d="m1.0762 15.736v4.2949h1.4023c0.71649 0 1.2674-0.2625 1.6133-0.78125 0.24407-0.36114 0.36133-0.84367 0.36133-1.4434 0-0.60689-0.18793-1.1137-0.5625-1.4961-0.37337-0.38119-0.85137-0.57422-1.4121-0.57422zm0.19922 0.19922h1.2031c0.51576 0 0.93144 0.17046 1.2695 0.51562 0.3369 0.34395 0.50391 0.789 0.50391 1.3555 0 0.57366-0.11208 1.0152-0.32617 1.332-0.30976 0.46464-0.77808 0.69336-1.4473 0.69336h-1.2031zm0.18555 0.18555v3.5254h1.0176c0.37993 0 0.70548-0.09793 0.9668-0.29492 0.40808-0.30582 0.61475-0.77737 0.61523-1.377v-2e-3c0.0015344-0.59432-0.14175-1.0612-0.44531-1.3789-0.30049-0.31235-0.68722-0.47266-1.1367-0.47266zm0.20117 0.20117h0.81641c0.40351 0 0.72649 0.13397 0.99219 0.41016 0.25851 0.2705 0.39243 0.67724 0.39062 1.2402 0 0.55715-0.17734 0.95321-0.53516 1.2207-0.22293 0.16806-0.50123 0.25195-0.84766 0.25195h-0.81641z" style="-inkscape-stroke:none;color:#000000;fill:#f68581;stroke:none"/>
  </g>
  <g transform="translate(0 .52917)">
   <path d="m5.5481 15.839v2.6708q0.0028 0.41626 0.25981 0.72357 0.32128 0.38274 0.97221 0.38274 0.82694 0 1.0923-0.61741 0.09778-0.22629 0.09778-0.4889v-2.6708h0.38553v2.6708q0 0.56992-0.31569 0.975-0.40229 0.51683-1.26 0.51683-0.58109 0-0.9778-0.25143-0.4861-0.3101-0.60623-0.91913-0.033524-0.16762-0.033524-0.32128v-2.6708z" style="-inkscape-stroke:none;color:#000000;fill:#f68581;stroke:none"/>
   <path d="m5.0625 15.738v2.7715c0 0.10971 0.011655 0.22429 0.035156 0.3418 0.084676 0.42714 0.30492 0.76204 0.65039 0.98242 0.28312 0.17944 0.62943 0.26758 1.0312 0.26758 0.59186 0 1.0505-0.18295 1.3398-0.55469 0.22444-0.28799 0.33594-0.6387 0.33594-1.0371v-2.7715h-0.58398v2.7715c0 0.16266-0.030244 0.31129-0.089844 0.44922-0.16205 0.37699-0.47555 0.55664-1.002 0.55664-0.41435 0-0.70173-0.11602-0.89453-0.3457-0.1572-0.18796-0.2346-0.40306-0.23633-0.66016v-2.7715h-0.099609zm0.19922 0.20117h0.18555v2.5703c2e-3 0.29792 0.09772 0.56533 0.2832 0.78711 0.23557 0.28063 0.59527 0.41992 1.0488 0.41992 0.57618 0 0.99373-0.23151 1.1855-0.67774 0.070774-0.16379 0.10547-0.34181 0.10547-0.5293v-2.5703h0.18555v2.5703c0 0.36148-0.09844 0.66194-0.29492 0.91406-0.24704 0.31737-0.62995 0.47852-1.1816 0.47852-0.37297 0-0.67801-0.08052-0.92383-0.23633-0.30219-0.19278-0.48479-0.46946-0.56055-0.85352v-2e-3c-0.021197-0.10599-0.033203-0.20562-0.033203-0.30078z" style="-inkscape-stroke:none;color:#000000;fill:#f68581;stroke:none"/>
  </g>
  <g transform="translate(0 .52917)">
   <path d="m9.3587 15.839h0.38553v3.7072h2.0785v0.38553h-2.464z" style="-inkscape-stroke:none;color:#000000;fill:#f68581;stroke:none"/>
   <path d="m9.2578 15.738v4.293h2.6641v-0.58594h-2.0781v-3.707zm0.20117 0.20117h0.18555v3.707h2.0781v0.18555h-2.2637z" style="-inkscape-stroke:none;color:#000000;fill:#f68581;stroke:none"/>
  </g>
  <g transform="translate(0 .52917)">
   <path d="m15.39 17.121q-0.07264-0.39112-0.40788-0.67887-0.33524-0.28775-0.82135-0.28775t-0.90516 0.36318q-0.52522 0.45537-0.52801 1.3605 0.0028 0.90795 0.51684 1.3661 0.41906 0.36877 0.92192 0.36877t0.82694-0.29613q0.32407-0.29613 0.38274-0.70401l0.37994 0.05587q-0.08381 0.55315-0.50845 0.94427-0.42464 0.39112-1.0756 0.38832-0.65093 0-1.1789-0.44979-0.39671-0.33804-0.56433-0.94986-0.0866-0.31569-0.0866-0.72357 0.0028-0.75151 0.29893-1.2264 0.29613-0.47493 0.72078-0.68166 0.42464-0.20115 0.82694-0.20115 0.60903 0 1.0504 0.38832 0.4414 0.38832 0.5308 0.89678z" style="-inkscape-stroke:none;color:#000000;fill:#f68581;stroke:none"/>
   <path d="m14.189 15.67c-0.28486 0-0.57696 0.07161-0.87109 0.21094-0.30196 0.14701-0.55639 0.38945-0.76172 0.71875-0.20987 0.33659-0.31254 0.76524-0.31445 1.2793 0 0.279 0.0292 0.52895 0.08984 0.75 0.11582 0.42274 0.31386 0.75984 0.5957 1 0.36745 0.31301 0.78715 0.47266 1.2441 0.47266 0.45408 0.0019 0.84262-0.13599 1.1445-0.41406 0.29796-0.27444 0.47996-0.61386 0.53906-1.0039l0.01563-0.09961-0.58008-0.08398-0.01367 0.09961c-0.0359 0.24961-0.15018 0.4605-0.35156 0.64453-0.19703 0.18005-0.44415 0.26953-0.75976 0.26953-0.3108 0-0.59099-0.11101-0.85547-0.34375-0.31826-0.28367-0.48061-0.70453-0.48242-1.291 0.0018-0.58415 0.16871-1.003 0.49414-1.2852 0.26491-0.22959 0.53872-0.33984 0.83789-0.33984 0.30434 0 0.55244 0.0874 0.75781 0.26367 0.20921 0.17958 0.33081 0.38317 0.375 0.62109l0.01758 0.09766 0.09766-0.01563 0.47852-0.08594-0.01758-0.09766c-0.06371-0.36234-0.25645-0.68411-0.56445-0.95508-0.31139-0.27395-0.68796-0.41211-1.1152-0.41211zm0 0.19922c0.38476 0 0.70723 0.11946 0.98438 0.36328 0.24935 0.21936 0.3728 0.47318 0.44336 0.74609l-0.18359 0.0332c-0.06731-0.24057-0.17854-0.46584-0.38672-0.64453-0.24162-0.20739-0.54292-0.3125-0.88672-0.3125-0.34897 1e-6 -0.67492 0.13206-0.96875 0.38672-0.37486 0.32501-0.56058 0.81477-0.5625 1.4375 0.0019 0.62412 0.18171 1.1122 0.54883 1.4395v2e-3h2e-3c0.29426 0.25895 0.62664 0.39258 0.98633 0.39258 0.35487 0 0.65947-0.10747 0.89453-0.32227 0.20193-0.18453 0.30477-0.41839 0.36328-0.66797l0.18359 0.02539c-0.06682 0.3001-0.18794 0.57015-0.42773 0.79102-0.26428 0.24342-0.59398 0.36506-1.0078 0.36328-0.41092 0-0.77672-0.13908-1.1133-0.42578-0.24709-0.21055-0.42553-0.50737-0.5332-0.90039-0.05483-0.19986-0.08203-0.43242-0.08203-0.69727 0.0018-0.48795 0.09824-0.87718 0.2832-1.1738 0.18923-0.30348 0.41403-0.51584 0.67773-0.64453 0.27205-0.12887 0.53363-0.19141 0.78516-0.19141z" style="-inkscape-stroke:none;color:#000000;fill:#f68581;stroke:none"/>
  </g>
  <g transform="translate(0 .52917)">
   <path d="m19.399 18.004h-2.3914v1.5393h2.6456v0.38832h-3.0312v-4.0928h2.939v0.38553h-2.5534v1.3941h2.3914z" style="-inkscape-stroke:none;color:#000000;fill:#f68581;stroke:none"/>
   <path d="m16.521 15.738v4.293h3.2324v-0.58789h-2.6465v-1.3398h2.3926v-0.58398h-2.3926v-1.1953h2.5547v-0.58594zm0.20117 0.20117h2.7383v0.18555h-2.5527v1.5938h2.3906v0.18555h-2.3906v1.7383h2.6445v0.18945h-2.8301z" style="-inkscape-stroke:none;color:#000000;fill:#f68581;stroke:none"/>
  </g>
  <path d="m22.939 17.539q0-0.39112-0.31848-0.623t-0.78224-0.23188q-0.46934 0-0.7515 0.21232-0.28216 0.21232-0.27937 0.51684-0.0028 0.41626 0.72357 0.62579 0.20115 0.05867 0.39671 0.10616 0.19556 0.04749 0.37436 0.09498t0.44699 0.15366q0.2682 0.10337 0.47214 0.32966 0.20394 0.2235 0.20394 0.61461t-0.25982 0.69284q-0.32686 0.37156-0.91354 0.47214-0.16204 0.02794-0.34362 0.02794-0.1788 0-0.38832-0.04749-0.20673-0.04749-0.49448-0.18438-0.28496-0.13968-0.51404-0.45817-0.22908-0.31848-0.22908-0.70122h0.38553q0.0028 0.42464 0.38553 0.71519 0.38274 0.28775 0.82973 0.28775 0.44699 0 0.76548-0.18438 0.39112-0.22908 0.39112-0.63976 0-0.47214-0.75151-0.68446-0.21232-0.06146-0.41347-0.10616-0.20115-0.04749-0.37715-0.09219-0.176-0.04749-0.43302-0.13969-0.25423-0.09498-0.44979-0.3101-0.19556-0.21232-0.19276-0.57271-0.0028-0.46096 0.39391-0.78782 0.3967-0.32686 1.0225-0.32686t1.056 0.33524 0.43023 0.90516z" style="-inkscape-stroke:none;color:#000000;fill:#f68581;stroke:none"/>
  <path d="m21.838 16.199c-0.4346 0-0.80155 0.11529-1.0859 0.34961-0.28186 0.23223-0.43118 0.5279-0.42969 0.86328-2e-3 0.2585 0.06912 0.47816 0.21875 0.64062 0.13995 0.15395 0.30348 0.26885 0.48828 0.33789h2e-3c0.17304 0.06207 0.31822 0.10791 0.43945 0.14062l2e-3 2e-3c0.11796 0.02996 0.24433 0.06002 0.37891 0.0918h2e-3c0.1319 0.02931 0.26658 0.06504 0.40625 0.10547h2e-3c0.24117 0.06814 0.41511 0.15524 0.52344 0.25391 0.10833 0.09866 0.1543 0.20314 0.1543 0.33398 0 0.24204-0.10354 0.41318-0.3418 0.55274-0.19476 0.11276-0.4306 0.17188-0.71484 0.17188-0.27654 0-0.52932-0.08698-0.76953-0.26758-0.23656-0.17958-0.34403-0.38352-0.3457-0.63672v-0.09961h-0.58594v0.10156c0 0.27511 0.08424 0.53008 0.24805 0.75781 0.16015 0.22265 0.34335 0.38855 0.55078 0.49023h2e-3c0.19617 0.09333 0.36724 0.15732 0.51562 0.19141 0.14566 0.03302 0.2821 0.05078 0.41016 0.05078 0.12619 0 0.24714-0.0096 0.36133-0.0293 0.40828-0.06999 0.73615-0.23728 0.9707-0.50391v-2e-3c0.18715-0.21734 0.28516-0.47492 0.28516-0.75781 0-0.27813-0.07493-0.51119-0.23047-0.68164-0.14548-0.16143-0.31606-0.28081-0.50977-0.35547-0.18112-0.0717-0.33195-0.12498-0.45703-0.1582-0.11995-0.03186-0.24594-0.06194-0.37695-0.09375-0.12884-0.03129-0.25988-0.06676-0.39258-0.10547-0.23363-0.06739-0.40196-0.15232-0.50586-0.24219-0.1039-0.08986-0.14527-0.17749-0.14453-0.28711v-2e-3c-0.0016-0.17191 0.06865-0.3079 0.23828-0.43555 0.16682-0.12553 0.39359-0.19336 0.69141-0.19336 0.2925 0 0.53096 0.0719 0.72461 0.21289 0.19069 0.13884 0.27734 0.30937 0.27734 0.54297v0.09961h0.58398v-0.09961c0-0.40511-0.16026-0.74399-0.46875-0.98438-0.30536-0.23794-0.68214-0.35547-1.1172-0.35547zm0 0.19922c0.39934 0 0.72586 0.10541 0.99414 0.31445 0.23324 0.18174 0.31876 0.43311 0.3457 0.72656h-0.18945c-0.03025-0.23628-0.10777-0.4573-0.30859-0.60352-0.23099-0.16818-0.51596-0.25195-0.8418-0.25195-0.32797 0-0.60115 0.07486-0.81055 0.23242-0.20606 0.15506-0.32186 0.36232-0.32031 0.5957-0.0011 0.16789 0.07756 0.32267 0.21484 0.44141 0.13691 0.11841 0.33046 0.20906 0.58008 0.28125 0.1355 0.03952 0.27044 0.07539 0.40234 0.10742 0.12974 0.0315 0.25264 0.06229 0.37109 0.09375 0.11332 0.0301 0.26103 0.08054 0.4375 0.15039 0.16388 0.06316 0.30716 0.1644 0.43359 0.30469 0.11638 0.12754 0.17774 0.30351 0.17774 0.54688 0 0.2386-0.07511 0.442-0.23438 0.62695-0.20127 0.22879-0.48152 0.37535-0.85547 0.43945-0.10186 0.01756-0.21024 0.02734-0.32617 0.02734-0.10977 0-0.23235-0.01494-0.36523-0.04492h-2e-3c-0.12703-0.02934-0.28584-0.08886-0.47266-0.17774-0.17251-0.08456-0.33127-0.22379-0.47656-0.42578-0.11963-0.16631-0.15768-0.35052-0.17578-0.54297h0.20508c0.03377 0.26471 0.13166 0.5116 0.37109 0.69336v2e-3c0.2701 0.20307 0.57117 0.30664 0.89062 0.30664 0.31174 0 0.58653-0.06418 0.81641-0.19727 0.28323-0.16589 0.43945-0.42103 0.43945-0.72656 0-0.18391-0.07657-0.35098-0.21875-0.48047-0.14181-0.12916-0.34465-0.22744-0.60352-0.30078h-2e-3c-0.14215-0.04111-0.28088-0.07735-0.41602-0.10742h-2e-3c-0.13288-0.03138-0.25886-0.0623-0.375-0.0918l2e-3 2e-3c-0.11344-0.03061-0.25613-0.07781-0.42578-0.13867-0.15314-0.05767-0.28807-0.15105-0.4082-0.2832h-2e-3c-0.11111-0.12064-0.16774-0.28189-0.16602-0.50391v-2e-3c-0.0017-0.27848 0.11084-0.50582 0.35742-0.70898 0.24455-0.2015 0.5592-0.30469 0.95898-0.30469z" style="-inkscape-stroke:none;color:#000000;fill:#f68581;stroke:none"/>
  <path d="m1.0848 22.173h1.4952q0.51953 0 0.82441 0.30001 0.30489 0.30001 0.30489 0.76587 0 0.4683-0.30245 0.76587-0.30245 0.29757-0.82685 0.29513h-1.1586v1.4586h-0.33659zm0.33659 0.3366v1.4537h1.1586q0.37318 0.0025 0.58294-0.20244 0.20976-0.20488 0.20976-0.51709 0-0.31708-0.21464-0.52684-0.21464-0.20976-0.57806-0.20732z" style="fill:#f68581;stroke-width:0"/>
  <path d="m5.7459 22.041h-0.40489l0.38782-0.68538h0.4805zm1.0732 2.022h-2.0879v1.3439h2.3098v0.33903h-2.6464v-3.5733h2.5659v0.3366h-2.2293v1.2171h2.0879z" style="fill:#f68581;stroke-width:0"/>
  <path d="m7.4118 22.173h2.844v0.3366h-1.2586v3.2391h-0.3366v-3.2391h-1.2488z" style="fill:#f68581;stroke-width:0"/>
  <path d="m11.822 22.17h0.32684l1.4854 3.5757h-0.36586l-0.44879-1.083h-1.6098l-0.4244 1.083h-0.35855zm0.1683 0.49514q-0.16342 0.42196-0.32684 0.83417-0.16098 0.40977-0.32196 0.82685h1.3366z" style="fill:#f68581;stroke-width:0"/>
  <path d="m14.149 22.173h0.33659v3.2367h1.8147v0.33659h-2.1513z" style="fill:#f68581;stroke-width:0"/>
  <path d="m18.376 22.448q-0.2683 0-0.51465 0.12195-0.24635 0.12196-0.41708 0.32684-0.34635 0.41952-0.34635 1.0317 0 0.61221 0.34391 1.0586 0.37318 0.48294 0.82441 0.48294 0.45123 0 0.68538-0.11708 0.23659-0.11952 0.40733-0.3244 0.35855-0.42928 0.35855-1.0659 0-0.6366-0.33659-1.0756-0.3366-0.43904-1.0049-0.43904zm-1.1805 0.21464q0.2122-0.25367 0.52196-0.40245 0.3122-0.14878 0.64636-0.14878 0.3366 0 0.56099 0.06829 0.22684 0.06829 0.49026 0.25122 0.26342 0.18293 0.45123 0.60002 0.18781 0.41708 0.18781 0.86344 0 0.44635-0.11952 0.78539-0.11708 0.33903-0.33172 0.59026-0.21464 0.24879-0.51465 0.39269-0.29757 0.14391-0.61221 0.14391-0.31464 0-0.54392-0.07317-0.22927-0.0756-0.50245-0.2683-0.27318-0.19513-0.46831-0.62441-0.19757-0.42684-0.19757-0.84392t0.10976-0.7488q0.10976-0.33415 0.32196-0.58538z" style="fill:#f68581;stroke-width:0"/>
  <path d="m22.954 23.195q0-0.34147-0.27806-0.54392-0.27806-0.20244-0.68294-0.20244-0.40977 0-0.65612 0.18537-0.24635 0.18537-0.24391 0.45123-0.0025 0.36342 0.63172 0.54636 0.17561 0.05122 0.34635 0.09269 0.17074 0.04147 0.32684 0.08293 0.1561 0.04147 0.39026 0.13415 0.23415 0.09025 0.41221 0.28781 0.17805 0.19513 0.17805 0.5366 0 0.34147-0.22684 0.60489-0.28537 0.3244-0.79758 0.41221-0.14147 0.02439-0.30001 0.02439-0.1561 0-0.33903-0.04147-0.18049-0.04147-0.43172-0.16098-0.24879-0.12196-0.44879-0.40001-0.20001-0.27806-0.20001-0.61221h0.33659q0.0025 0.37074 0.3366 0.62441 0.33416 0.25123 0.72441 0.25123 0.39025 0 0.66831-0.16098 0.34147-0.20001 0.34147-0.55855 0-0.4122-0.65612-0.59758-0.18537-0.05366-0.36098-0.09269-0.17562-0.04147-0.32928-0.08049-0.15366-0.04147-0.37806-0.12196-0.22196-0.08293-0.39269-0.27074-0.17074-0.18537-0.1683-0.50001-0.0025-0.40245 0.34391-0.68782 0.34635-0.28537 0.89271-0.28537 0.54636 0 0.92198 0.29269 0.37562 0.29269 0.37562 0.79026z" style="fill:#f68581;stroke-width:0"/>
 </g>
</svg>
